<svg width="227" height="60" viewBox="0 0 227 60" fill="none" xmlns="http://www.w3.org/2000/svg">
<path d="M104.016 48.293H99.1465V42H83.7129V48.2754H78.7207L78.4395 37.7637H80.373C81.416 36.8965 82.2188 35.625 82.7812 33.9492C83.3555 32.2617 83.7422 30.1758 83.9414 27.6914L84.6797 16.4062H101.449V37.7637H104.438L104.016 48.293ZM86.4199 37.7637H96.1758V20.6777H89.6895L89.25 27.4102C88.8984 31.9219 87.9551 35.373 86.4199 37.7637ZM123.369 42H118.271V34.6875H111.961V42H106.881V22.9805H111.961V30.6094H118.271V22.9805H123.369V42ZM136.061 42.3516C133.271 42.3516 130.998 41.4961 129.24 39.7852C127.494 38.0742 126.621 35.7949 126.621 32.9473V32.4551C126.621 30.5449 126.99 28.8398 127.729 27.3398C128.467 25.8281 129.51 24.668 130.857 23.8594C132.217 23.0391 133.764 22.6289 135.498 22.6289C138.1 22.6289 140.145 23.4492 141.633 25.0898C143.133 26.7305 143.883 29.0566 143.883 32.0684V34.1426H131.771C131.936 35.3848 132.428 36.3809 133.248 37.1309C134.08 37.8809 135.129 38.2559 136.395 38.2559C138.352 38.2559 139.881 37.5469 140.982 36.1289L143.479 38.9238C142.717 40.002 141.686 40.8457 140.385 41.4551C139.084 42.0527 137.643 42.3516 136.061 42.3516ZM135.48 26.7422C134.473 26.7422 133.652 27.082 133.02 27.7617C132.398 28.4414 132 29.4141 131.824 30.6797H138.891V30.2754C138.867 29.1504 138.562 28.2832 137.977 27.6738C137.391 27.0527 136.559 26.7422 135.48 26.7422ZM147.117 42V22.9805H155.062C157.652 22.9805 159.639 23.4375 161.021 24.3516C162.404 25.2656 163.096 26.5781 163.096 28.2891C163.096 29.168 162.803 29.959 162.217 30.6621C161.643 31.3535 160.799 31.8867 159.686 32.2617C161.045 32.5195 162.111 33.0293 162.885 33.791C163.67 34.541 164.062 35.4668 164.062 36.5684C164.062 38.3379 163.395 39.6855 162.059 40.6113C160.734 41.5371 158.807 42 156.275 42H147.117ZM152.197 34.1074V37.9395H156.293C158.086 37.9395 158.982 37.3125 158.982 36.0586C158.982 34.7812 158.127 34.1309 156.416 34.1074H152.197ZM152.197 30.6973H155.344C157.125 30.6738 158.016 30.0996 158.016 28.9746C158.016 28.2832 157.77 27.791 157.277 27.498C156.797 27.2051 156.059 27.0586 155.062 27.0586H152.197V30.6973ZM183.662 42H178.564V34.6875H172.254V42H167.174V22.9805H172.254V30.6094H178.564V22.9805H183.662V42ZM199.061 22.9805H204.141V42H199.061V30.2578L192.697 42H187.6V22.9805H192.697V34.7051L199.061 22.9805ZM215.479 34.9863H213.439V42H208.359V22.9805H213.439V30.1348H215.25L219.398 22.9805H225.814L219.592 32.0332L226.395 42H219.627L215.479 34.9863Z" fill="#1E2022"/>
<rect width="60" height="60" rx="12" fill="url(#paint0_radial)"/>
<path fill-rule="evenodd" clip-rule="evenodd" d="M31.0485 36.1179C30.0495 37.2429 28.6978 38.0476 27.1667 38.3583V42.75C27.1667 43.5324 26.5324 44.1667 25.75 44.1667C24.9676 44.1667 24.3334 43.5324 24.3334 42.75V38.3583C21.1002 37.702 18.6667 34.8436 18.6667 31.4167V22.9167C18.6667 19.0047 21.838 15.8334 25.75 15.8334C29.4457 15.8334 32.4803 18.6636 32.8047 22.2749C33.6446 21.7824 34.6227 21.5 35.6667 21.5C38.7963 21.5 41.3334 24.0371 41.3334 27.1667V32.8334C41.3334 35.4738 39.5274 37.6925 37.0834 38.3215V42.75C37.0834 43.5324 36.4491 44.1667 35.6667 44.1667C34.8843 44.1667 34.25 43.5324 34.25 42.75V38.3215C32.9392 37.9841 31.812 37.1896 31.0485 36.1179ZM30 22.9167V31.4167C30 33.2672 28.8174 34.8414 27.1667 35.4249V31.4167C27.1667 30.6343 26.5324 30 25.75 30C24.9676 30 24.3334 30.6343 24.3334 31.4167V35.4249C22.6827 34.8414 21.5 33.2672 21.5 31.4167V22.9167C21.5 20.5695 23.4028 18.6667 25.75 18.6667C28.0972 18.6667 30 20.5695 30 22.9167ZM37.0834 35.2877V31.4167C37.0834 30.6343 36.4491 30 35.6667 30C34.8843 30 34.25 30.6343 34.25 31.4167V35.2877C33.4031 34.7978 32.8334 33.8821 32.8334 32.8334V27.1667C32.8334 25.6019 34.1019 24.3334 35.6667 24.3334C37.2315 24.3334 38.5 25.6019 38.5 27.1667V32.8334C38.5 33.8821 37.9302 34.7978 37.0834 35.2877Z" fill="white"/>
<defs>
<radialGradient id="paint0_radial" cx="0" cy="0" r="1" gradientUnits="userSpaceOnUse" gradientTransform="rotate(45) scale(84.8528)">
<stop offset="0.25" stop-color="#ADCE74"/>
<stop offset="0.71875" stop-color="#FFF76A"/>
<stop offset="1" stop-color="#FFCE89"/>
</radialGradient>
</defs>
</svg>
